
<?xml version="1.0" encoding="UTF-8"?>
<svg width="166px" height="32px" viewBox="0 0 166 32" version="1.1" xmlns="http://www.w3.org/2000/svg" xmlns:xlink="http://www.w3.org/1999/xlink">
    <title>logo_2</title>
    <g id="正式" stroke="none" stroke-width="1" fill="none" fill-rule="evenodd">
        <g id="官网" transform="translate(-329, -3023)">
            <g id="底部" transform="translate(0, 2984)">
                <g id="logo_2" transform="translate(330, 40)">
                    <g id="3">
                        <path d="M15,0 C23.2843333,0 30,6.71566667 30,15 C30,23.2843333 23.2843333,30 15,30 C6.71566667,30 0,23.2843333 0,15 C0,6.71566667 6.71566667,0 15,0" id="Fill-1" stroke="#FFFFFF"></path>
                        <g id="编组-7" transform="translate(4.65, 7.05)">
                            <path d="M11.6833333,6.41666667 C11.6833333,7.68333333 10.6666667,8.7 9.4,8.7 C8.13333333,8.7 7.11666667,7.66666667 7.11666667,6.41666667 C7.11666667,6.21666667 7.15,6.03333333 7.18333333,5.85 C6.53333333,6.55 6.08333333,7.43333333 5.93333333,8.35 C6.61666667,9.56666667 7.9,10.3833333 9.4,10.3833333 C11.5833333,10.3833333 13.3666667,8.61666667 13.3666667,6.41666667 C13.3666667,5.36666667 12.95,4.41666667 12.2833333,3.7 C11.5166667,3.81666667 10.7333333,3.98333333 9.98333333,4.21666667 C10.9666667,4.46666667 11.6833333,5.35 11.6833333,6.41666667" id="Fill-3" fill="#FFFFFF" opacity="0.300000012"></path>
                            <path d="M7.93333333,7.46666667 C8.26466667,7.46666667 8.53333333,7.73533333 8.53333333,8.06666667 C8.53333333,8.398 8.26466667,8.66666667 7.93333333,8.66666667 C7.602,8.66666667 7.33333333,8.398 7.33333333,8.06666667 C7.33333333,7.73533333 7.602,7.46666667 7.93333333,7.46666667" id="Fill-5" fill="#FEFEFE"></path>
                            <path d="M11.6833333,4.55 C12.2816667,4.55 12.7666667,5.035 12.7666667,5.63333333 C12.7666667,6.23166667 12.2816667,6.71666667 11.6833333,6.71666667 C11.085,6.71666667 10.6,6.23166667 10.6,5.63333333 C10.6,5.035 11.085,4.55 11.6833333,4.55" id="Fill-7" fill="#FEFEFE"></path>
                            <path d="M20.7,0 C14.7,1.15 12.7833333,-0.3 9.58333333,0.316666667 C8.4,0.566666667 7.23333333,1 6.25,1.71666667 C5.05,2.56666667 4.13333333,3.78333333 3.51666667,5.1 C3.2,3.61666667 3.45,1.86666667 4.73333333,0.883333333 C3.05,1.65 1.41666667,2.85 0.666666667,4.6 C0.05,6.06666667 0.266666667,7.73333333 0.85,9.16666667 C1.66666667,11.1333333 2.98333333,12.8333333 4.46666667,14.35 C2.78333333,13.8833333 1.21666667,12.9666667 0,11.7 C0.616666667,13.4166667 1.65,15 3.11666667,16.0833333 C3.78333333,16.6 4.51666667,17 5.3,17.3333333 C5.7,14.35 4.41666667,11.4333333 4.71666667,8.45 C4.95,6.21666667 6.55,4.25 8.6,3.41666667 C10.65,2.58333333 12.8666667,2.33333333 15.0666667,2.21666667 C16.7166667,2.13333333 19.6833333,1.48333333 20.7,0" id="Fill-9" fill="#FEFEFE"></path>
                            <path d="M15.7166667,12.3666667 C15.3166667,13.5333333 14.3666667,14.5333333 13.1666667,14.9 C12.7833333,15 12.3333333,15.0833333 11.9666667,14.8833333 C11.7333333,14.7666667 11.5833333,14.4166667 11.7833333,14.2166667 C11.9666667,14.1 12.1833333,14.1 12.3833333,14.05 C12.4,14.05 12.4166667,14.0333333 12.45,14.0333333 C13.6666667,13.8 14.7333333,13.1166667 15.7166667,12.3666667" id="Fill-11" fill="#416DFA"></path>
                            <path d="M17.1166667,3.81666667 C17.3,3.38333333 17.4666667,2.93333333 17.7333333,2.53333333 C17.9333333,2.9 18.0666667,3.3 18.2,3.7 C18.2333333,3.91666667 18.3333333,4.11666667 18.35,4.33333333 C18.5666667,5.43333333 18.4666667,6.61666667 18,7.65 C17.9166667,7.81666667 17.85,7.98333333 17.75,8.15 C18,7.91666667 18.2,7.63333333 18.35,7.33333333 C18.3833333,7.63333333 18.3333333,7.95 18.2666667,8.25 C18.1166667,8.83333333 17.85,9.38333333 17.5166667,9.86666667 C17.1666667,10.3333333 16.7833333,10.7666667 16.3333333,11.15 C15.95,11.4833333 15.5333333,11.7666667 15.1,12.0166667 C14.7,12.25 14.25,12.4333333 13.8166667,12.5833333 C13.6833333,12.6333333 13.5333333,12.65 13.4,12.6666667 C14.0166667,12.3333333 14.5833333,11.9 15.0333333,11.35 C15.4166667,10.8666667 15.7,10.3166667 15.8833333,9.75 C16.1166667,9.06666667 16.25,8.35 16.35,7.63333333 C16.5166667,6.35 16.65,5.05 17.1166667,3.81666667" id="Fill-13" fill="#FFFFFF"></path>
                            <path d="M15.1333333,7.18333333 C15.15,7.13333333 15.1833333,7.1 15.2166667,7.06666667 C15.25,7.18333333 15.2333333,7.31666667 15.2166667,7.45 C15.1333333,8.65 14.6833333,9.8 14.0166667,10.7833333 C13.4,11.7 12.6,12.4833333 11.7166667,13.1333333 C11.35,13.3666667 10.9833333,13.6166667 10.6166667,13.8333333 C10.3833333,13.9333333 10.15,14.0666667 9.91666667,14.1666667 C8.9,14.6166667 7.83333333,14.9166667 6.71666667,15.0166667 C6.73333333,14.8166667 6.76666667,14.6166667 6.81666667,14.4166667 C6.95,13.9333333 7.2,13.4666667 7.56666667,13.1166667 C7.71666667,12.9666667 7.91666667,12.85 8.08333333,12.7166667 C8.91666667,12.1833333 9.88333333,11.8833333 10.7666667,11.4166667 C11.0166667,11.3 11.2333333,11.15 11.4666667,11.0333333 C11.9,10.7833333 12.3,10.4833333 12.7,10.1666667 C13.7,9.35 14.5166667,8.31666667 15.1333333,7.18333333" id="Fill-15" fill="#FEFEFE"></path>
                        </g>
                    </g>
                    <g id="编组-5" transform="translate(38, 6)" fill="#FFFFFF">
                        <g id="2" transform="translate(1.4058, 15.1865)">
                            <path d="M6.95890411,1.24333925 C7.25764494,1.24333925 7.46852082,1.3321492 7.59153176,1.4920071 C7.67939671,1.59857904 7.71454269,1.74067496 7.71454269,1.91829485 C7.71454269,1.98934281 7.71454269,2.06039076 7.6969697,2.13143872 L7.60910475,2.6642984 C7.55638578,2.94849023 7.45094783,3.17939609 7.27521793,3.32149201 C7.09948803,3.46358792 6.90618514,3.55239787 6.64259029,3.55239787 C6.37899543,3.55239787 6.22083852,3.48134991 6.11540058,3.35701599 L5.86937872,4.76021314 L5.11374014,4.76021314 L5.71122181,1.31438721 L6.39656842,1.31438721 L6.37899543,1.43872114 C6.51957936,1.29662522 6.71288225,1.24333925 6.95890411,1.24333925 Z M2.81167843,0.213143872 L2.6886675,0.923623446 L1.2476823,0.923623446 L1.14224436,1.52753108 L2.33720769,1.52753108 L2.21419676,2.23801066 L1.01923343,2.23801066 L0.931368479,2.77087034 L2.37235367,2.77087034 L2.24934274,3.48134991 L0,3.48134991 L0.562335686,0.213143872 L2.81167843,0.213143872 Z M3.69032794,1.26110124 L3.98906877,1.88277087 L4.51625848,1.26110124 L5.359762,1.26110124 L4.39324754,2.36234458 L5.0083022,3.48134991 L4.16479867,3.48134991 L3.84848485,2.84191829 L3.30372215,3.48134991 L2.46021862,3.48134991 L3.42673308,2.36234458 L2.84682441,1.26110124 L3.69032794,1.26110124 Z M6.66016328,1.90053286 C6.50200637,1.90053286 6.39656842,1.93605684 6.36142244,2.0071048 L6.22083852,2.77087034 C6.2559845,2.85968028 6.34384945,2.89520426 6.48443337,2.89520426 C6.57229833,2.89520426 6.64259029,2.87744227 6.71288225,2.80639432 C6.78317421,2.75310835 6.83589318,2.6642984 6.85346617,2.55772647 L6.90618514,2.22024867 L6.90618514,2.11367673 C6.90618514,2.07815275 6.88861215,2.02486679 6.85346617,1.97158082 C6.81832019,1.91829485 6.74802823,1.90053286 6.66016328,1.90053286 Z M8.80406808,2.78863233 C8.80406808,2.85968028 8.83921406,2.91296625 8.92707901,2.91296625 C9.01494396,2.91296625 9.06766293,2.89520426 9.1203819,2.87744227 L9.10280891,3.39253996 C8.96222499,3.51687389 8.80406808,3.57015986 8.61076519,3.57015986 C8.34717033,3.57015986 8.17144043,3.4991119 8.08357548,3.37477798 C8.03085651,3.28596803 8.01328352,3.19715808 8.01328352,3.10834813 C8.01328352,3.01953819 8.01328352,2.93072824 8.03085651,2.85968028 L8.52290024,0.0710479574 L9.27853881,0.0710479574 L8.80406808,2.75310835 C8.82164107,2.75310835 8.80406808,2.77087034 8.80406808,2.78863233 M10.8776809,2.22024867 L10.8776809,2.11367673 C10.8776809,2.07815275 10.8601079,2.0071048 10.8249619,1.95381883 C10.789816,1.90053286 10.719524,1.86500888 10.6140861,1.86500888 C10.5086481,1.86500888 10.4383562,1.90053286 10.3680642,1.97158082 C10.2977722,2.04262877 10.2626263,2.13143872 10.2450533,2.23801066 L10.1923343,2.57548845 L10.1923343,2.68206039 C10.1923343,2.71758437 10.2099073,2.78863233 10.2450533,2.84191829 C10.2801993,2.89520426 10.3504912,2.93072824 10.4559292,2.93072824 C10.5613671,2.93072824 10.6316591,2.89520426 10.701951,2.82415631 C10.772243,2.75310835 10.807389,2.6642984 10.8249619,2.57548845 L10.8776809,2.22024867 Z M10.75467,1.24333925 C11.0709838,1.24333925 11.3170057,1.31438721 11.4927356,1.45648313 C11.6157465,1.56305506 11.6860385,1.72291297 11.6860385,1.91829485 C11.6860385,1.98934281 11.6860385,2.06039076 11.6684655,2.13143872 L11.5806005,2.6642984 C11.5278816,2.98401421 11.3872976,3.21492007 11.1764218,3.339254 C10.9655459,3.46358792 10.684378,3.53463588 10.3504912,3.53463588 C10.0166044,3.53463588 9.75300955,3.46358792 9.59485264,3.339254 C9.4718417,3.23268206 9.41912273,3.09058615 9.41912273,2.89520426 C9.41912273,2.82415631 9.41912273,2.75310835 9.43669572,2.6642984 L9.52456068,2.13143872 C9.61242563,1.54529307 10.0341774,1.24333925 10.75467,1.24333925 L10.75467,1.24333925 Z M14.1111111,1.75843694 C14.1111111,1.86500888 14.0935381,1.95381883 14.0583921,2.06039076 C14.0232462,2.1669627 13.9881002,2.22024867 13.9529542,2.27353464 L13.9002352,2.34458259 L13.2148886,2.34458259 C13.2851806,2.27353464 13.3203266,2.18472469 13.3203266,2.07815275 C13.3203266,2.02486679 13.3027536,1.97158082 13.2676076,1.93605684 C13.2324616,1.90053286 13.1797426,1.88277087 13.1270237,1.88277087 C13.0215857,1.88277087 12.9337208,1.93605684 12.8634288,2.04262877 L12.6174069,3.48134991 L11.8617684,3.48134991 L12.2483742,1.29662522 L12.9512938,1.29662522 L12.8985748,1.59857904 C13.0743047,1.34991119 13.2676076,1.22557726 13.5136294,1.22557726 C13.7069323,1.22557726 13.8475163,1.27886323 13.9529542,1.36767318 C14.0583921,1.45648313 14.1286841,1.59857904 14.1111111,1.75843694 M15.6926802,2.18472469 C15.7102532,2.13143872 15.7102532,2.07815275 15.7102532,2.04262877 C15.7102532,2.0071048 15.6926802,1.95381883 15.6575342,1.90053286 C15.6223883,1.84724689 15.5520963,1.8294849 15.4642314,1.8294849 C15.3763664,1.8294849 15.3060744,1.86500888 15.2357825,1.91829485 C15.1654905,1.97158082 15.1127716,2.06039076 15.0951986,2.18472469 L15.6926802,2.18472469 Z M15.1479175,3.55239787 C14.5328629,3.55239787 14.2165491,3.339254 14.2165491,2.89520426 C14.2165491,2.84191829 14.2165491,2.77087034 14.234122,2.69982238 L14.321987,2.13143872 C14.374706,1.84724689 14.4977169,1.61634103 14.7261658,1.45648313 C14.9546146,1.29662522 15.2182095,1.22557726 15.5696693,1.22557726 C16.167151,1.22557726 16.4658918,1.45648313 16.4658918,1.91829485 C16.4658918,1.98934281 16.4658918,2.06039076 16.4483188,2.13143872 L16.3955998,2.45115453 L15.0249066,2.45115453 L15.0073336,2.55772647 L15.0073336,2.6642984 C15.0073336,2.82415631 15.0951986,2.91296625 15.3060744,2.91296625 C15.3763664,2.91296625 15.4466584,2.89520426 15.4818043,2.84191829 C15.5345233,2.78863233 15.5696693,2.73534636 15.5696693,2.68206039 L16.3077349,2.69982238 C16.2374429,3.26820604 15.8332641,3.55239787 15.1479175,3.55239787 L15.1479175,3.55239787 Z M19.2072783,0.213143872 L19.681749,1.77619893 L20.7185554,0.213143872 L21.5620589,0.213143872 L20.9997233,3.48134991 L20.1913657,3.48134991 L20.5076795,1.63410302 L19.8223329,2.73534636 L19.2248513,2.73534636 L18.9261104,1.63410302 L18.6097966,3.48134991 L17.801439,3.48134991 L18.3637747,0.213143872 L19.2072783,0.213143872 Z M22.4231355,2.57548845 L22.4231355,2.68206039 C22.4231355,2.71758437 22.4407085,2.77087034 22.4934274,2.82415631 C22.5461464,2.87744227 22.6164384,2.89520426 22.7218763,2.89520426 C22.8273142,2.89520426 22.9151792,2.85968028 23.0030441,2.77087034 L23.1436281,2.0071048 C23.1084821,1.93605684 23.0381901,1.90053286 22.9151792,1.90053286 C22.6867303,1.90053286 22.5461464,2.0071048 22.5110004,2.23801066 L22.4231355,2.57548845 Z M23.7586827,2.78863233 C23.7586827,2.85968028 23.7938287,2.91296625 23.8816936,2.91296625 C23.9695586,2.91296625 24.0222776,2.89520426 24.0749965,2.87744227 L24.0574236,3.39253996 C23.9168396,3.51687389 23.7586827,3.57015986 23.5653798,3.57015986 C23.231493,3.57015986 23.0557631,3.44582593 23.0206171,3.21492007 C22.8624602,3.46358792 22.6515843,3.57015986 22.3528435,3.57015986 C21.8607998,3.57015986 21.6147779,3.35701599 21.6147779,2.93072824 C21.6147779,2.85968028 21.6147779,2.77087034 21.6323509,2.68206039 L21.7202159,2.14920071 C21.7729348,1.88277087 21.8783728,1.65186501 22.0541027,1.4920071 C22.2298326,1.3321492 22.4582814,1.24333925 22.7218763,1.24333925 C22.9854711,1.24333925 23.178774,1.31438721 23.284212,1.43872114 L23.301785,1.29662522 L23.9871316,1.29662522 L23.7411097,2.73534636 C23.7586827,2.75310835 23.7586827,2.77087034 23.7586827,2.78863233 L23.7586827,2.78863233 Z M26.5352152,1.75843694 C26.5352152,1.86500888 26.5176422,1.95381883 26.4824962,2.06039076 C26.4473502,2.1669627 26.4122042,2.22024867 26.3770583,2.27353464 L26.3243393,2.34458259 L25.6389927,2.34458259 C25.7092846,2.27353464 25.7444306,2.18472469 25.7444306,2.07815275 C25.7444306,2.02486679 25.7268576,1.97158082 25.6917116,1.93605684 C25.6565657,1.90053286 25.6038467,1.88277087 25.5511277,1.88277087 C25.4456898,1.88277087 25.3578248,1.93605684 25.2875329,2.04262877 L25.041511,3.48134991 L24.2858724,3.48134991 L24.6724782,1.29662522 L25.3753978,1.29662522 L25.3226788,1.59857904 C25.4984087,1.34991119 25.6917116,1.22557726 25.9377335,1.22557726 C26.1310364,1.22557726 26.2716203,1.27886323 26.3770583,1.36767318 C26.4824962,1.45648313 26.5352152,1.59857904 26.5352152,1.75843694 M28.0289193,1.86500888 C27.8707624,1.86500888 27.7301785,1.93605684 27.5895946,2.09591474 L27.5368756,2.39786856 C27.9762004,2.38010657 28.2046492,2.25577265 28.2046492,2.04262877 C28.2046492,1.98934281 28.1870762,1.95381883 28.1519303,1.91829485 C28.1167843,1.88277087 28.0816383,1.86500888 28.0289193,1.86500888 M28.8021309,2.91296625 C28.8724229,2.91296625 28.9251418,2.89520426 28.9778608,2.87744227 L28.9602878,3.39253996 C28.8197039,3.51687389 28.643974,3.57015986 28.4506711,3.57015986 C28.2573682,3.57015986 28.0992113,3.51687389 27.9937733,3.41030195 C27.8883354,3.30373002 27.8180434,3.12611012 27.7653245,2.85968028 L27.7477515,2.78863233 C27.6774595,2.80639432 27.5895946,2.80639432 27.4665836,2.80639432 L27.3435727,3.4991119 L26.5879341,3.4991119 L27.1854158,0.053285968 L27.9410544,0.053285968 L27.6774595,1.54529307 C27.8531894,1.34991119 28.0992113,1.24333925 28.3979521,1.24333925 C28.608828,1.24333925 28.7494119,1.29662522 28.8548499,1.40319716 C28.9427148,1.50976909 28.9954338,1.63410302 28.9954338,1.81172291 C28.9954338,2.13143872 28.8197039,2.39786856 28.4858171,2.57548845 L28.538536,2.73534636 C28.591255,2.84191829 28.661547,2.91296625 28.8021309,2.91296625 M30.8054518,2.18472469 C30.8230248,2.13143872 30.8230248,2.07815275 30.8230248,2.04262877 C30.8230248,2.0071048 30.8054518,1.95381883 30.7703058,1.90053286 C30.7351598,1.84724689 30.6648679,1.8294849 30.5770029,1.8294849 C30.489138,1.8294849 30.418846,1.86500888 30.348554,1.91829485 C30.2782621,1.97158082 30.2255431,2.06039076 30.2079701,2.18472469 L30.8054518,2.18472469 Z M30.2606891,3.55239787 C29.6456344,3.55239787 29.3293206,3.339254 29.3293206,2.89520426 C29.3293206,2.84191829 29.3293206,2.77087034 29.3468936,2.69982238 L29.4347585,2.13143872 C29.4874775,1.84724689 29.6104884,1.61634103 29.8389373,1.45648313 C30.0673862,1.29662522 30.330981,1.22557726 30.6824408,1.22557726 C31.2799225,1.22557726 31.5786633,1.45648313 31.5786633,1.91829485 C31.5786633,1.98934281 31.5786633,2.06039076 31.5610904,2.13143872 L31.5083714,2.45115453 L30.1376782,2.45115453 L30.1201052,2.55772647 L30.1201052,2.6642984 C30.1201052,2.82415631 30.2079701,2.91296625 30.418846,2.91296625 C30.489138,2.91296625 30.5594299,2.89520426 30.5945759,2.84191829 C30.6472949,2.78863233 30.6824408,2.73534636 30.6824408,2.68206039 L31.4205064,2.69982238 C31.3326415,3.26820604 30.9460357,3.55239787 30.2606891,3.55239787 L30.2606891,3.55239787 Z M32.7911997,3.55239787 C32.4397399,3.55239787 32.193718,3.48134991 32.0355611,3.32149201 C31.9301231,3.21492007 31.8598312,3.05506217 31.8598312,2.85968028 C31.8598312,2.78863233 31.8598312,2.73534636 31.8774042,2.6642984 L32.176145,0.905861456 L33.0020756,0.568383659 L32.8790646,1.3321492 L34.1091739,1.3321492 L34.003736,1.97158082 L32.7736267,1.97158082 L32.6857617,2.48667851 C32.6681887,2.53996448 32.6681887,2.59325044 32.6681887,2.64653641 C32.6681887,2.84191829 32.7560537,2.93072824 32.9317836,2.93072824 C33.0196485,2.93072824 33.1075135,2.89520426 33.1778055,2.80639432 C33.2480974,2.71758437 33.2832434,2.61101243 33.3183894,2.48667851 L34.056455,2.48667851 C33.933444,3.17939609 33.5116923,3.55239787 32.7911997,3.55239787 M36.5518196,1.77619893 C36.5518196,1.88277087 36.5166736,1.97158082 36.4639546,2.06039076 L35.725889,2.06039076 C35.743462,2.04262877 35.761035,2.0071048 35.761035,1.97158082 C35.761035,1.93605684 35.743462,1.90053286 35.690743,1.86500888 C35.6380241,1.84724689 35.5853051,1.8294849 35.5150131,1.8294849 C35.2865643,1.8294849 35.1811263,1.90053286 35.1811263,2.04262877 C35.1811263,2.09591474 35.2162723,2.13143872 35.3041373,2.1669627 C35.3920022,2.18472469 35.4974402,2.20248668 35.6028781,2.22024867 C35.725889,2.23801066 35.8489,2.25577265 35.9543379,2.29129663 C36.0773488,2.3268206 36.1827868,2.38010657 36.2530787,2.46891652 C36.3409437,2.55772647 36.3760897,2.6642984 36.3760897,2.80639432 C36.3760897,3.05506217 36.2706517,3.25044405 36.0773488,3.37477798 C35.8840459,3.4991119 35.5853051,3.57015986 35.2162723,3.57015986 C34.8472395,3.57015986 34.5660717,3.4991119 34.4254878,3.37477798 C34.3024768,3.26820604 34.2497579,3.14387211 34.2497579,2.98401421 C34.2497579,2.93072824 34.2497579,2.87744227 34.2673308,2.84191829 L35.0229694,2.82415631 C35.0229694,2.85968028 35.0405424,2.89520426 35.0932614,2.93072824 C35.1459804,2.96625222 35.2338453,2.98401421 35.3392832,2.98401421 C35.4447212,2.98401421 35.5325861,2.96625222 35.5677321,2.94849023 C35.6028781,2.93072824 35.6380241,2.87744227 35.6380241,2.82415631 C35.6380241,2.78863233 35.6028781,2.75310835 35.5150131,2.73534636 C35.4271482,2.71758437 35.3217103,2.69982238 35.1986993,2.69982238 C35.0756884,2.69982238 34.9526775,2.6642984 34.8296665,2.64653641 C34.7066556,2.62877442 34.6012177,2.55772647 34.5133527,2.46891652 C34.4254878,2.38010657 34.3903418,2.27353464 34.3903418,2.13143872 C34.3903418,1.84724689 34.4957797,1.65186501 34.7066556,1.4920071 C34.9175315,1.34991119 35.2162723,1.27886323 35.6204511,1.27886323 C36.2355057,1.24333925 36.5518196,1.42095915 36.5518196,1.77619893 M38.2388266,0.568383659 C38.2388266,0.373001776 38.2739726,0.230905861 38.3618376,0.142095915 C38.4497025,0.053285968 38.5727134,0 38.7660163,0 C39.0120382,0 39.1526221,0.106571936 39.1526221,0.337477798 C39.1526221,0.53285968 39.1174761,0.674955595 39.0296112,0.763765542 C38.9417462,0.852575488 38.8187353,0.888099467 38.6254324,0.888099467 C38.3618376,0.888099467 38.2388266,0.781527531 38.2388266,0.568383659 M38.7835893,2.91296625 C38.8538813,2.91296625 38.9066002,2.89520426 38.9593192,2.87744227 L38.9417462,3.39253996 C38.8011623,3.51687389 38.6430054,3.57015986 38.4672755,3.57015986 C38.2036806,3.57015986 38.0279507,3.4991119 37.9400858,3.37477798 C37.8873668,3.28596803 37.8522208,3.19715808 37.8522208,3.10834813 C37.8522208,3.01953819 37.8522208,2.93072824 37.8697938,2.85968028 L38.1333887,1.3321492 L38.8890273,1.3321492 L38.6430054,2.77087034 L38.6430054,2.82415631 C38.6605784,2.85968028 38.6957244,2.91296625 38.7835893,2.91296625 M40.6990452,2.09591474 C40.6990452,1.97158082 40.6463263,1.90053286 40.5057424,1.90053286 C40.3651584,1.90053286 40.2772935,1.95381883 40.1894285,2.04262877 L39.9434067,3.48134991 L39.1877681,3.48134991 L39.5743739,1.29662522 L40.2772935,1.29662522 L40.2245745,1.56305506 C40.4003044,1.34991119 40.6287533,1.22557726 40.8923481,1.22557726 C41.155943,1.22557726 41.3316729,1.29662522 41.4195378,1.42095915 C41.4722568,1.50976909 41.4898298,1.59857904 41.4898298,1.70515098 C41.4898298,1.81172291 41.4898298,1.91829485 41.4722568,2.0071048 L41.3492459,2.69982238 L41.3492459,2.75310835 C41.3492459,2.84191829 41.4019649,2.87744227 41.4898298,2.87744227 C41.5601218,2.87744227 41.6128407,2.85968028 41.6655597,2.84191829 L41.6479867,3.35701599 C41.5074028,3.48134991 41.3492459,3.53463588 41.173516,3.53463588 C40.7693372,3.53463588 40.5584613,3.35701599 40.5584613,3.01953819 C40.5584613,2.96625222 40.5584613,2.89520426 40.5760343,2.82415631 L40.6814723,2.22024867 C40.6814723,2.18472469 40.6990452,2.13143872 40.6990452,2.09591474 M46.6738619,1.31438721 L46.462986,2.52220249 C46.462986,2.57548845 46.445413,2.62877442 46.445413,2.68206039 C46.445413,2.82415631 46.533278,2.89520426 46.6914349,2.89520426 C46.8320188,2.89520426 46.9374568,2.84191829 47.0077487,2.75310835 L47.2713436,1.31438721 L48.0269822,1.31438721 L47.7809603,2.75310835 L47.7809603,2.78863233 C47.7809603,2.85968028 47.8161063,2.91296625 47.9039712,2.91296625 C47.9918362,2.91296625 48.0445551,2.89520426 48.0972741,2.87744227 L48.0797011,3.39253996 C47.9391172,3.51687389 47.7809603,3.57015986 47.5876574,3.57015986 C47.2537706,3.57015986 47.0604677,3.44582593 47.0428947,3.17939609 C46.8671648,3.44582593 46.6211429,3.57015986 46.3224021,3.57015986 C46.0236613,3.57015986 45.8303584,3.4991119 45.7249204,3.35701599 C45.6722015,3.26820604 45.6370555,3.1616341 45.6370555,3.05506217 C45.6370555,2.94849023 45.6370555,2.84191829 45.6722015,2.75310835 L45.9182233,1.31438721 L46.6738619,1.31438721 Z M45.8127854,0.213143872 L45.6897745,0.923623446 L44.2487893,0.923623446 L44.1433513,1.58081705 L45.3383147,1.58081705 L45.2153037,2.29129663 L44.0203404,2.29129663 L43.8094645,3.48134991 L43.001107,3.48134991 L43.5634426,0.213143872 L45.8127854,0.213143872 Z M49.2219455,2.78863233 C49.2219455,2.85968028 49.2570915,2.91296625 49.3449564,2.91296625 C49.4328214,2.91296625 49.4855403,2.89520426 49.5382593,2.87744227 L49.5206863,3.39253996 C49.3801024,3.51687389 49.2219455,3.57015986 49.0286426,3.57015986 C48.7650477,3.57015986 48.5893178,3.4991119 48.5014529,3.37477798 C48.4487339,3.28596803 48.4311609,3.19715808 48.4311609,3.10834813 C48.4311609,3.01953819 48.4311609,2.93072824 48.4487339,2.85968028 L48.9407776,0.0710479574 L49.6964162,0.0710479574 L49.2219455,2.75310835 L49.2219455,2.78863233 Z M50.6453577,2.78863233 C50.6453577,2.85968028 50.6805037,2.91296625 50.7683686,2.91296625 C50.8562336,2.91296625 50.9089525,2.89520426 50.9616715,2.87744227 L50.9440985,3.39253996 C50.8035146,3.51687389 50.6453577,3.57015986 50.4520548,3.57015986 C50.1884599,3.57015986 50.01273,3.4991119 49.9248651,3.37477798 C49.8721461,3.28596803 49.8545731,3.19715808 49.8545731,3.10834813 C49.8545731,3.01953819 49.8545731,2.93072824 49.8721461,2.85968028 L50.3641898,0.0710479574 L51.1198284,0.0710479574 L50.6453577,2.75310835 C50.6629307,2.75310835 50.6453577,2.77087034 50.6453577,2.78863233 M56.2862875,1.3321492 L56.0402657,2.77087034 L56.0402657,2.82415631 C56.0402657,2.85968028 56.0929846,2.91296625 56.1808496,2.91296625 C56.2511416,2.91296625 56.3038605,2.89520426 56.3565795,2.87744227 L56.3390065,3.39253996 C56.1984226,3.51687389 56.0402657,3.57015986 55.8645358,3.57015986 C55.6009409,3.57015986 55.425211,3.4991119 55.3373461,3.37477798 C55.2846271,3.28596803 55.2494811,3.19715808 55.2494811,3.10834813 C55.2494811,3.01953819 55.2494811,2.93072824 55.2670541,2.85968028 L55.530649,1.3321492 L56.2862875,1.3321492 Z M53.5449011,0.230905861 L53.5273281,2.69982238 L53.650339,2.69982238 L54.4938425,0.230905861 L55.372492,0.230905861 L54.1423827,3.4991119 L52.7013975,3.4991119 L52.6662516,0.230905861 L53.5449011,0.230905861 Z M56.1632766,0 C56.4092985,0 56.5498824,0.106571936 56.5498824,0.337477798 C56.5498824,0.53285968 56.5147364,0.674955595 56.4268715,0.763765542 C56.3390065,0.852575488 56.2159956,0.888099467 56.0226927,0.888099467 C55.7590978,0.888099467 55.6360869,0.781527531 55.6360869,0.568383659 C55.6360869,0.373001776 55.6712329,0.230905861 55.7590978,0.142095915 C55.8469628,0.053285968 55.9699737,0 56.1632766,0 Z M58.0787325,2.18472469 C58.0963055,2.13143872 58.0963055,2.07815275 58.0963055,2.04262877 C58.0963055,2.0071048 58.0787325,1.95381883 58.0435866,1.90053286 C58.0084406,1.84724689 57.9381486,1.8294849 57.8502837,1.8294849 C57.7624187,1.8294849 57.6921267,1.86500888 57.6218348,1.91829485 C57.5515428,1.97158082 57.4988239,2.06039076 57.4812509,2.18472469 L58.0787325,2.18472469 Z M57.5515428,3.55239787 C56.9364882,3.55239787 56.6201743,3.339254 56.6201743,2.89520426 C56.6201743,2.84191829 56.6201743,2.77087034 56.6377473,2.69982238 L56.7256123,2.13143872 C56.7783313,1.84724689 56.9013422,1.61634103 57.1297911,1.45648313 C57.3406669,1.29662522 57.6218348,1.22557726 57.9732946,1.22557726 C58.5707763,1.22557726 58.8695171,1.45648313 58.8695171,1.91829485 C58.8695171,1.98934281 58.8695171,2.06039076 58.8519441,2.13143872 L58.7992251,2.45115453 L57.4285319,2.45115453 L57.4109589,2.55772647 L57.4109589,2.6642984 C57.4109589,2.82415631 57.4988239,2.91296625 57.7096997,2.91296625 C57.7799917,2.91296625 57.8502837,2.89520426 57.8854296,2.84191829 C57.9381486,2.78863233 57.9732946,2.73534636 57.9732946,2.68206039 L58.7113602,2.69982238 C58.6234952,3.26820604 58.2368894,3.55239787 57.5515428,3.55239787 L57.5515428,3.55239787 Z M62.7882939,1.29662522 C62.8234399,1.42095915 62.8585859,1.59857904 62.8585859,1.81172291 C62.8585859,2.02486679 62.8410129,2.22024867 62.7882939,2.41563055 C62.7355749,2.61101243 62.665283,2.78863233 62.559845,2.96625222 C62.4544071,3.14387211 62.3138232,3.28596803 62.1205203,3.39253996 C61.9447904,3.4991119 61.7339145,3.55239787 61.4878926,3.55239787 C61.1364328,3.55239787 60.890411,3.44582593 60.7674,3.25044405 C60.5565241,3.44582593 60.3105023,3.55239787 60.0469074,3.55239787 C59.6954476,3.55239787 59.4318528,3.48134991 59.3088418,3.32149201 C59.2209769,3.21492007 59.1682579,3.07282416 59.1682579,2.85968028 C59.1682579,2.75310835 59.1858309,2.62877442 59.2034039,2.5044405 L59.4142798,1.29662522 L60.1699184,1.29662522 L59.9590425,2.5044405 C59.9590425,2.53996448 59.9414695,2.59325044 59.9414695,2.62877442 C59.9414695,2.80639432 60.0293344,2.89520426 60.2050643,2.89520426 C60.3280753,2.89520426 60.4159402,2.84191829 60.4862322,2.73534636 C60.5565241,2.62877442 60.6092431,2.43339254 60.6443891,2.1669627 L60.802546,1.29662522 L61.5581846,1.29662522 L61.3473087,2.5044405 C61.3473087,2.53996448 61.3297357,2.59325044 61.3297357,2.62877442 C61.3297357,2.80639432 61.4176007,2.89520426 61.5933306,2.89520426 C61.9096444,2.89520426 62.0678013,2.55772647 62.0678013,1.90053286 C62.0678013,1.74067496 62.0502283,1.58081705 62.0326553,1.38543517 L62.0150823,1.29662522 L62.7882939,1.29662522 Z M66.5313408,2.84191829 C66.6719247,2.84191829 66.7949357,2.80639432 66.8828006,2.71758437 C66.9706656,2.64653641 67.0409575,2.48667851 67.0761035,2.29129663 L67.2342604,1.42095915 C67.2342604,1.36767318 67.2518334,1.31438721 67.2518334,1.26110124 C67.2518334,1.01243339 67.1288225,0.888099467 66.8828006,0.888099467 C66.5664868,0.888099467 66.3907569,1.06571936 66.3380379,1.42095915 L66.179881,2.29129663 C66.162308,2.36234458 66.162308,2.45115453 66.162308,2.52220249 C66.144735,2.73534636 66.2853189,2.84191829 66.5313408,2.84191829 M66.9882385,0.177619893 C67.7087311,0.177619893 68.0777639,0.479573712 68.0777639,1.06571936 C68.0777639,1.1722913 68.060191,1.27886323 68.042618,1.38543517 L67.884461,2.29129663 C67.8141691,2.71758437 67.6560122,3.01953819 67.4099903,3.23268206 C67.1639685,3.44582593 66.8300816,3.53463588 66.3907569,3.53463588 C65.9514321,3.53463588 65.6526913,3.42806394 65.4769614,3.23268206 C65.3539505,3.09058615 65.3012315,2.89520426 65.3012315,2.6642984 C65.3012315,2.55772647 65.3188045,2.43339254 65.3363775,2.30905861 L65.4945344,1.40319716 C65.6526913,0.586145648 66.144735,0.177619893 66.9882385,0.177619893 M69.676906,2.09591474 C69.676906,1.97158082 69.6241871,1.90053286 69.4836032,1.90053286 C69.3430192,1.90053286 69.2551543,1.95381883 69.1672893,2.04262877 L68.9212675,3.48134991 L68.1656289,3.48134991 L68.5522347,1.29662522 L69.2551543,1.29662522 L69.2024353,1.56305506 C69.3781652,1.34991119 69.6066141,1.22557726 69.8702089,1.22557726 C70.1338038,1.22557726 70.3095337,1.29662522 70.3973986,1.42095915 C70.4501176,1.50976909 70.4676906,1.59857904 70.4676906,1.70515098 C70.4676906,1.81172291 70.4676906,1.91829485 70.4501176,2.0071048 L70.3271067,2.69982238 L70.3271067,2.75310835 C70.3271067,2.84191829 70.3622527,2.87744227 70.4676906,2.87744227 C70.5379826,2.87744227 70.5907015,2.85968028 70.6434205,2.84191829 L70.6258475,3.35701599 C70.4852636,3.48134991 70.3271067,3.53463588 70.1513768,3.53463588 C69.747198,3.53463588 69.5363221,3.35701599 69.5363221,3.01953819 C69.5363221,2.96625222 69.5363221,2.89520426 69.5538951,2.82415631 L69.6593331,2.22024867 C69.676906,2.18472469 69.676906,2.13143872 69.676906,2.09591474 M72.3655735,2.18472469 C72.3831465,2.13143872 72.3831465,2.07815275 72.3831465,2.04262877 C72.3831465,2.0071048 72.3655735,1.95381883 72.3304276,1.90053286 C72.2952816,1.84724689 72.2249896,1.8294849 72.1371247,1.8294849 C72.0492597,1.8294849 71.9789678,1.86500888 71.9086758,1.91829485 C71.8383838,1.97158082 71.7856649,2.06039076 71.7680919,2.18472469 L72.3655735,2.18472469 Z M71.8383838,3.55239787 C71.2233292,3.55239787 70.9070154,3.339254 70.9070154,2.89520426 C70.9070154,2.84191829 70.9070154,2.77087034 70.9245883,2.69982238 L71.0124533,2.13143872 C71.0651723,1.84724689 71.1881832,1.61634103 71.4166321,1.45648313 C71.627508,1.29662522 71.9086758,1.22557726 72.2601356,1.22557726 C72.8576173,1.22557726 73.1563581,1.45648313 73.1563581,1.91829485 C73.1563581,1.98934281 73.1563581,2.06039076 73.1387851,2.13143872 L73.0860661,2.45115453 L71.7153729,2.45115453 L71.6977999,2.55772647 L71.6977999,2.6642984 C71.6977999,2.82415631 71.7856649,2.91296625 71.9965407,2.91296625 C72.0668327,2.91296625 72.1371247,2.89520426 72.1722707,2.84191829 C72.2249896,2.78863233 72.2601356,2.73534636 72.2601356,2.68206039 L72.9982012,2.69982238 C72.9103362,3.26820604 72.5061575,3.55239787 71.8383838,3.55239787 L71.8383838,3.55239787 Z M76.0910475,2.55772647 C76.0910475,2.77087034 76.2316314,2.87744227 76.5303722,2.87744227 C76.829113,2.87744227 76.969697,2.78863233 76.969697,2.59325044 C76.969697,2.48667851 76.916978,2.41563055 76.8115401,2.34458259 C76.7061021,2.27353464 76.5830912,2.22024867 76.4425073,2.18472469 C76.3019233,2.14920071 76.1437664,2.09591474 76.0031825,2.04262877 C75.8625986,1.98934281 75.7395877,1.90053286 75.6341497,1.77619893 C75.5287118,1.65186501 75.4759928,1.50976909 75.4759928,1.3321492 C75.4759928,0.568383659 75.9680365,0.195381883 76.916978,0.195381883 C77.2684378,0.195381883 77.5320327,0.26642984 77.7253355,0.390763766 C77.9010654,0.53285968 77.9889304,0.710479574 77.9889304,0.941385435 C77.9889304,1.03019538 77.9713574,1.11900533 77.9537844,1.19005329 C77.9362114,1.26110124 77.9010654,1.3321492 77.8834925,1.36767318 L77.8483465,1.42095915 L77.0575619,1.42095915 C77.1278539,1.34991119 77.1629999,1.26110124 77.1629999,1.15452931 C77.1629999,0.959147425 77.0399889,0.852575488 76.7763941,0.852575488 C76.4600803,0.852575488 76.3019233,0.959147425 76.3019233,1.15452931 C76.3019233,1.26110124 76.3546423,1.3321492 76.4600803,1.40319716 C76.5655182,1.45648313 76.6885291,1.50976909 76.829113,1.54529307 C76.969697,1.58081705 77.1278539,1.61634103 77.2684378,1.669627 C77.4090217,1.72291297 77.5320327,1.81172291 77.6374706,1.91829485 C77.7429085,2.02486679 77.7956275,2.20248668 77.7956275,2.38010657 C77.7956275,2.77087034 77.6726166,3.05506217 77.4617407,3.23268206 C77.2508648,3.41030195 76.881832,3.51687389 76.4073613,3.51687389 C75.9328905,3.51687389 75.6165767,3.42806394 75.4408468,3.26820604 C75.3178359,3.14387211 75.2475439,2.96625222 75.2475439,2.73534636 C75.2475439,2.64653641 75.2475439,2.55772647 75.2826899,2.45115453 L75.3002629,2.38010657 L76.1086205,2.38010657 L76.1086205,2.43339254 C76.0910475,2.5044405 76.0910475,2.53996448 76.0910475,2.55772647 M79.1136018,3.55239787 C78.762142,3.55239787 78.5161201,3.48134991 78.3579632,3.32149201 C78.2349523,3.21492007 78.1822333,3.05506217 78.1822333,2.85968028 C78.1822333,2.78863233 78.1822333,2.73534636 78.1998063,2.6642984 L78.4985471,0.905861456 L79.3244777,0.568383659 L79.2014667,1.3321492 L80.431576,1.3321492 L80.3261381,1.97158082 L79.0960288,1.97158082 L79.0081638,2.48667851 C78.9905908,2.53996448 78.9905908,2.59325044 78.9905908,2.64653641 C78.9905908,2.84191829 79.0784558,2.93072824 79.2541857,2.93072824 C79.3420506,2.93072824 79.4299156,2.89520426 79.5002076,2.80639432 C79.5704995,2.71758437 79.6056455,2.61101243 79.6407915,2.48667851 L80.3788571,2.48667851 C80.2558461,3.17939609 79.8340944,3.55239787 79.1136018,3.55239787 M84.7193856,1.24333925 C85.0181265,1.24333925 85.2290024,1.3321492 85.3520133,1.4920071 C85.4398782,1.59857904 85.4750242,1.74067496 85.4750242,1.91829485 C85.4750242,1.98934281 85.4750242,2.06039076 85.4574512,2.13143872 L85.3695863,2.6642984 C85.3168673,2.94849023 85.2114294,3.17939609 85.0356995,3.32149201 C84.8599696,3.46358792 84.6490937,3.55239787 84.4030718,3.55239787 C84.15705,3.55239787 83.98132,3.48134991 83.8758821,3.35701599 L83.6298602,4.76021314 L82.8742217,4.76021314 L83.4717033,1.31438721 L84.15705,1.31438721 L84.139477,1.43872114 C84.2800609,1.29662522 84.4733638,1.24333925 84.7193856,1.24333925 Z M81.9604262,1.24333925 C82.27674,1.24333925 82.5227619,1.31438721 82.6984918,1.45648313 C82.8215027,1.56305506 82.8917947,1.72291297 82.8917947,1.91829485 C82.8917947,1.98934281 82.8917947,2.06039076 82.8742217,2.13143872 L82.7863567,2.6642984 C82.7336377,2.98401421 82.5930538,3.21492007 82.3821779,3.339254 C82.1713021,3.46358792 81.8901342,3.53463588 81.5562474,3.53463588 C81.2223606,3.53463588 80.9587657,3.46358792 80.8006088,3.339254 C80.6775979,3.23268206 80.6248789,3.09058615 80.6248789,2.89520426 C80.6248789,2.82415631 80.6248789,2.75310835 80.6424519,2.6642984 L80.7303169,2.13143872 C80.8181818,1.54529307 81.2399336,1.24333925 81.9604262,1.24333925 Z M81.8198423,1.86500888 C81.7144043,1.86500888 81.6441124,1.90053286 81.5738204,1.97158082 C81.5035284,2.04262877 81.4683825,2.13143872 81.4508095,2.23801066 L81.3980905,2.57548845 L81.3980905,2.68206039 C81.3980905,2.71758437 81.4156635,2.78863233 81.4508095,2.84191829 C81.4859554,2.89520426 81.5562474,2.93072824 81.6616853,2.93072824 C81.7671233,2.93072824 81.8374152,2.89520426 81.9077072,2.82415631 C81.9779992,2.75310835 82.0131452,2.6642984 82.0307181,2.57548845 L82.0834371,2.22024867 L82.0834371,2.11367673 C82.0834371,2.07815275 82.0658641,2.0071048 82.0307181,1.95381883 C81.9955722,1.90053286 81.9252802,1.86500888 81.8198423,1.86500888 Z M84.4030718,1.90053286 C84.2449149,1.90053286 84.139477,1.93605684 84.104331,2.0071048 L83.9637471,2.77087034 C84.016466,2.85968028 84.104331,2.89520426 84.2449149,2.89520426 C84.3327799,2.89520426 84.4030718,2.87744227 84.4733638,2.80639432 C84.5436557,2.75310835 84.5963747,2.6642984 84.6139477,2.55772647 L84.6666667,2.22024867 L84.6666667,2.11367673 C84.6666667,2.07815275 84.6490937,2.02486679 84.6139477,1.97158082 C84.5788017,1.91829485 84.5085098,1.90053286 84.4030718,1.90053286 Z M88.2164107,0.213143872 L88.6908814,1.77619893 L89.7276878,0.213143872 L90.5711914,0.213143872 L90.0088557,3.48134991 L89.2004981,3.48134991 L89.516812,1.63410302 L88.8314653,2.73534636 L88.2339837,2.73534636 L87.9352428,1.63410302 L87.618929,3.48134991 L86.8105715,3.48134991 L87.3729072,0.213143872 L88.2164107,0.213143872 Z M91.4322679,2.57548845 L91.4322679,2.68206039 C91.4322679,2.71758437 91.4498409,2.77087034 91.5025598,2.82415631 C91.5552788,2.87744227 91.6255708,2.89520426 91.7310087,2.89520426 C91.8364467,2.89520426 91.9243116,2.85968028 92.0121766,2.77087034 L92.1527605,2.0071048 C92.1176145,1.93605684 92.0473225,1.90053286 91.9243116,1.90053286 C91.6958627,1.90053286 91.5552788,2.0071048 91.5201328,2.23801066 L91.4322679,2.57548845 Z M92.7678151,2.78863233 C92.7678151,2.85968028 92.8029611,2.91296625 92.8908261,2.91296625 C92.978691,2.91296625 93.03141,2.89520426 93.084129,2.87744227 L93.066556,3.39253996 C92.925972,3.51687389 92.7678151,3.57015986 92.5745122,3.57015986 C92.2406254,3.57015986 92.0648955,3.44582593 92.0297496,3.21492007 C91.8891656,3.46358792 91.6607168,3.57015986 91.3619759,3.57015986 C90.8699322,3.57015986 90.6239103,3.35701599 90.6239103,2.93072824 C90.6239103,2.85968028 90.6239103,2.77087034 90.6414833,2.68206039 L90.7293483,2.14920071 C90.7820672,1.88277087 90.8875052,1.65186501 91.0632351,1.4920071 C91.238965,1.3321492 91.4674139,1.24333925 91.7310087,1.24333925 C91.9946036,1.24333925 92.1879065,1.31438721 92.2933444,1.43872114 L92.3109174,1.29662522 L92.996264,1.29662522 L92.7502421,2.73534636 C92.7678151,2.75310835 92.7678151,2.77087034 92.7678151,2.78863233 L92.7678151,2.78863233 Z M95.5443476,1.75843694 C95.5443476,1.86500888 95.5267746,1.95381883 95.4916286,2.06039076 C95.4564826,2.1669627 95.4213367,2.22024867 95.3861907,2.27353464 L95.3334717,2.34458259 L94.6481251,2.34458259 C94.718417,2.27353464 94.753563,2.18472469 94.753563,2.07815275 C94.753563,2.02486679 94.73599,1.97158082 94.7008441,1.93605684 C94.6656981,1.90053286 94.6129791,1.88277087 94.5602601,1.88277087 C94.4548222,1.88277087 94.3669572,1.93605684 94.2966653,2.04262877 L94.0506434,3.48134991 L93.2950048,3.48134991 L93.6816106,1.29662522 L94.3845302,1.29662522 L94.3318113,1.59857904 C94.5075412,1.34991119 94.718417,1.22557726 94.9468659,1.22557726 C95.1401688,1.22557726 95.2807527,1.27886323 95.3861907,1.36767318 C95.4916286,1.45648313 95.5443476,1.59857904 95.5443476,1.75843694 M97.0380518,1.86500888 C96.8798948,1.86500888 96.7393109,1.93605684 96.598727,2.09591474 L96.546008,2.39786856 C96.9853328,2.38010657 97.2137817,2.25577265 97.2137817,2.04262877 C97.2137817,1.98934281 97.1962087,1.95381883 97.1610627,1.91829485 C97.1259167,1.88277087 97.1083437,1.86500888 97.0380518,1.86500888 M97.8112633,2.91296625 C97.8815553,2.91296625 97.9342742,2.89520426 97.9869932,2.87744227 L97.9694202,3.39253996 C97.8288363,3.51687389 97.6531064,3.57015986 97.4598035,3.57015986 C97.2665006,3.57015986 97.1083437,3.51687389 97.0029058,3.41030195 C96.8974678,3.30373002 96.8271759,3.12611012 96.7744569,2.85968028 L96.7568839,2.78863233 C96.6865919,2.80639432 96.598727,2.80639432 96.4757161,2.80639432 L96.3527051,3.4991119 L95.5970666,3.4991119 L96.1945482,0.053285968 L96.9501868,0.053285968 L96.6865919,1.54529307 C96.8623218,1.34991119 97.1083437,1.24333925 97.4070845,1.24333925 C97.6179604,1.24333925 97.7585443,1.29662522 97.8639823,1.40319716 C97.9518472,1.50976909 98.0045662,1.63410302 98.0045662,1.81172291 C98.0045662,2.13143872 97.8288363,2.39786856 97.4949495,2.57548845 L97.5476685,2.73534636 C97.6003874,2.84191829 97.6882524,2.91296625 97.8112633,2.91296625 M99.8145842,2.18472469 C99.8321572,2.13143872 99.8321572,2.07815275 99.8321572,2.04262877 C99.8321572,2.0071048 99.8145842,1.95381883 99.7794382,1.90053286 C99.7442922,1.84724689 99.6740003,1.8294849 99.5861353,1.8294849 C99.4982704,1.8294849 99.4279784,1.86500888 99.3576865,1.91829485 C99.2873945,1.97158082 99.2346755,2.06039076 99.2171025,2.18472469 L99.8145842,2.18472469 Z M99.2698215,3.55239787 C98.6547668,3.55239787 98.338453,3.339254 98.338453,2.89520426 C98.338453,2.84191829 98.338453,2.77087034 98.356026,2.69982238 L98.443891,2.13143872 C98.4966099,1.84724689 98.6196209,1.61634103 98.8480697,1.45648313 C99.0589456,1.29662522 99.3401135,1.22557726 99.6915733,1.22557726 C100.289055,1.22557726 100.587796,1.45648313 100.587796,1.91829485 C100.587796,1.98934281 100.587796,2.06039076 100.570223,2.13143872 L100.535077,2.45115453 L99.1643836,2.45115453 L99.1468106,2.55772647 L99.1468106,2.6642984 C99.1468106,2.82415631 99.2346755,2.91296625 99.4455514,2.91296625 C99.5158434,2.91296625 99.5861353,2.89520426 99.6212813,2.84191829 C99.6740003,2.78863233 99.7091463,2.73534636 99.7091463,2.68206039 L100.447212,2.69982238 C100.359347,3.26820604 99.9551681,3.55239787 99.2698215,3.55239787 L99.2698215,3.55239787 Z M101.817905,3.55239787 C101.466445,3.55239787 101.220423,3.48134991 101.062267,3.32149201 C100.939256,3.21492007 100.886537,3.05506217 100.886537,2.85968028 C100.886537,2.78863233 100.886537,2.73534636 100.90411,2.6642984 L101.20285,0.905861456 L102.028781,0.568383659 L101.90577,1.3321492 L103.135879,1.3321492 L103.030441,1.97158082 L101.800332,1.97158082 L101.712467,2.48667851 C101.694894,2.53996448 101.694894,2.59325044 101.694894,2.64653641 C101.694894,2.84191829 101.782759,2.93072824 101.958489,2.93072824 C102.046354,2.93072824 102.134219,2.89520426 102.204511,2.80639432 C102.274803,2.71758437 102.309949,2.61101243 102.345095,2.48667851 L103.08316,2.48667851 C102.942576,3.17939609 102.520825,3.55239787 101.817905,3.55239787 M105.508233,3.55239787 C105.086481,3.55239787 104.78774,3.46358792 104.612011,3.26820604 C104.489,3.12611012 104.436281,2.94849023 104.436281,2.71758437 C104.436281,2.61101243 104.453854,2.5044405 104.471427,2.38010657 L104.647156,1.3321492 C104.78774,0.568383659 105.262211,0.177619893 106.105715,0.177619893 C106.457174,0.177619893 106.720769,0.248667851 106.896499,0.408525755 C107.072229,0.55062167 107.160094,0.763765542 107.160094,1.03019538 C107.160094,1.15452931 107.142521,1.27886323 107.107375,1.38543517 C107.072229,1.50976909 107.037083,1.59857904 107.001937,1.65186501 L106.949218,1.74067496 L106.158434,1.74067496 C106.263872,1.63410302 106.299018,1.45648313 106.299018,1.24333925 C106.299018,1.13676732 106.263872,1.04795737 106.211153,0.976909414 C106.158434,0.905861456 106.070569,0.870337478 105.965131,0.870337478 C105.66639,0.870337478 105.49066,1.03019538 105.420368,1.38543517 L105.262211,2.30905861 C105.244638,2.38010657 105.244638,2.46891652 105.244638,2.53996448 C105.244638,2.73534636 105.367649,2.84191829 105.596098,2.84191829 C105.877266,2.84191829 106.052996,2.68206039 106.105715,2.36234458 L106.914072,2.36234458 L106.896499,2.48667851 C106.826207,3.19715808 106.334164,3.55239787 105.508233,3.55239787 M108.759236,2.22024867 L108.759236,2.11367673 C108.759236,2.07815275 108.741663,2.0071048 108.706517,1.95381883 C108.671371,1.90053286 108.601079,1.86500888 108.495641,1.86500888 C108.390203,1.86500888 108.319911,1.90053286 108.249619,1.97158082 C108.179328,2.04262877 108.144182,2.13143872 108.126609,2.23801066 L108.07389,2.57548845 L108.07389,2.68206039 C108.07389,2.71758437 108.091463,2.78863233 108.126609,2.84191829 C108.161755,2.89520426 108.232046,2.93072824 108.337484,2.93072824 C108.442922,2.93072824 108.513214,2.89520426 108.583506,2.82415631 C108.653798,2.75310835 108.688944,2.6642984 108.706517,2.57548845 L108.759236,2.22024867 Z M108.636225,1.24333925 C108.952539,1.24333925 109.198561,1.31438721 109.374291,1.45648313 C109.497302,1.56305506 109.567594,1.72291297 109.567594,1.91829485 C109.567594,1.98934281 109.567594,2.06039076 109.550021,2.13143872 L109.462156,2.6642984 C109.409437,2.98401421 109.268853,3.21492007 109.057977,3.339254 C108.847101,3.46358792 108.565933,3.53463588 108.232046,3.53463588 C107.89816,3.53463588 107.634565,3.46358792 107.476408,3.339254 C107.353397,3.23268206 107.300678,3.09058615 107.300678,2.89520426 C107.300678,2.82415631 107.300678,2.75310835 107.318251,2.6642984 L107.406116,2.13143872 C107.493981,1.54529307 107.915733,1.24333925 108.636225,1.24333925 L108.636225,1.24333925 Z M112.098104,1.29662522 C112.13325,1.42095915 112.168396,1.59857904 112.168396,1.81172291 C112.168396,2.02486679 112.13325,2.22024867 112.098104,2.41563055 C112.045385,2.61101243 111.975093,2.78863233 111.869655,2.96625222 C111.764218,3.14387211 111.623634,3.28596803 111.430331,3.39253996 C111.254601,3.4991119 111.043725,3.55239787 110.797703,3.55239787 C110.42867,3.55239787 110.165075,3.48134991 110.024491,3.32149201 C109.936627,3.21492007 109.883908,3.05506217 109.883908,2.84191829 C109.883908,2.73534636 109.901481,2.62877442 109.919054,2.5044405 L110.129929,1.29662522 L110.885568,1.29662522 L110.674692,2.5044405 C110.674692,2.53996448 110.657119,2.59325044 110.657119,2.62877442 C110.657119,2.80639432 110.744984,2.89520426 110.920714,2.89520426 C111.237028,2.89520426 111.395185,2.55772647 111.395185,1.90053286 C111.395185,1.74067496 111.377612,1.58081705 111.360039,1.38543517 L111.342466,1.29662522 L112.098104,1.29662522 Z M113.855403,2.18472469 C113.872976,2.13143872 113.872976,2.07815275 113.872976,2.04262877 C113.872976,2.0071048 113.855403,1.95381883 113.820257,1.90053286 C113.785111,1.84724689 113.714819,1.8294849 113.626954,1.8294849 C113.53909,1.8294849 113.468798,1.86500888 113.398506,1.91829485 C113.328214,1.97158082 113.275495,2.06039076 113.257922,2.18472469 L113.855403,2.18472469 Z M113.328214,3.55239787 C112.713159,3.55239787 112.396845,3.339254 112.396845,2.89520426 C112.396845,2.84191829 112.396845,2.77087034 112.414418,2.69982238 L112.502283,2.13143872 C112.555002,1.84724689 112.678013,1.61634103 112.906462,1.45648313 C113.117338,1.29662522 113.398506,1.22557726 113.749965,1.22557726 C114.347447,1.22557726 114.646188,1.45648313 114.646188,1.91829485 C114.646188,1.98934281 114.646188,2.06039076 114.628615,2.13143872 L114.575896,2.45115453 L113.205203,2.45115453 L113.18763,2.55772647 L113.18763,2.6642984 C113.18763,2.82415631 113.275495,2.91296625 113.486371,2.91296625 C113.556663,2.91296625 113.626954,2.89520426 113.6621,2.84191829 C113.714819,2.78863233 113.749965,2.73534636 113.749965,2.68206039 L114.488031,2.69982238 C114.400166,3.26820604 114.01356,3.55239787 113.328214,3.55239787 L113.328214,3.55239787 Z M117.071261,1.75843694 C117.071261,1.86500888 117.053688,1.95381883 117.018542,2.06039076 C116.983396,2.1669627 116.94825,2.22024867 116.913104,2.27353464 L116.860385,2.34458259 L116.175038,2.34458259 C116.24533,2.27353464 116.280476,2.18472469 116.280476,2.07815275 C116.280476,2.02486679 116.262903,1.97158082 116.227757,1.93605684 C116.192611,1.90053286 116.139892,1.88277087 116.087173,1.88277087 C115.981735,1.88277087 115.89387,1.93605684 115.823578,2.04262877 L115.577556,3.48134991 L114.821918,3.48134991 L115.208524,1.29662522 L115.911443,1.29662522 L115.858724,1.59857904 C116.034454,1.34991119 116.24533,1.22557726 116.473779,1.22557726 C116.667082,1.22557726 116.807666,1.27886323 116.913104,1.36767318 C117.018542,1.45648313 117.071261,1.59857904 117.071261,1.75843694 M117.985056,2.57548845 L117.985056,2.68206039 C117.985056,2.71758437 118.002629,2.77087034 118.055348,2.82415631 C118.108067,2.87744227 118.178359,2.89520426 118.283797,2.89520426 C118.389235,2.89520426 118.4771,2.85968028 118.564965,2.77087034 L118.705549,2.0071048 C118.670403,1.93605684 118.600111,1.90053286 118.4771,1.90053286 C118.248651,1.90053286 118.108067,2.0071048 118.072921,2.23801066 L117.985056,2.57548845 Z M119.30303,2.78863233 C119.30303,2.85968028 119.338176,2.91296625 119.426041,2.91296625 C119.513906,2.91296625 119.566625,2.89520426 119.619344,2.87744227 L119.601771,3.39253996 C119.461187,3.51687389 119.30303,3.57015986 119.109727,3.57015986 C118.775841,3.57015986 118.600111,3.44582593 118.564965,3.21492007 C118.424381,3.46358792 118.195932,3.57015986 117.897191,3.57015986 C117.405147,3.57015986 117.159126,3.35701599 117.159126,2.93072824 C117.159126,2.85968028 117.159126,2.77087034 117.176698,2.68206039 L117.264563,2.14920071 C117.317282,1.88277087 117.42272,1.65186501 117.59845,1.4920071 C117.77418,1.3321492 118.002629,1.24333925 118.266224,1.24333925 C118.529819,1.24333925 118.723122,1.31438721 118.82856,1.43872114 L118.846133,1.29662522 L119.531479,1.29662522 L119.285457,2.73534636 C119.320603,2.75310835 119.320603,2.77087034 119.30303,2.78863233 L119.30303,2.78863233 Z M120.691297,2.57548845 L120.691297,2.68206039 C120.691297,2.71758437 120.70887,2.77087034 120.761588,2.82415631 C120.814307,2.87744227 120.884599,2.89520426 120.990037,2.89520426 C121.095475,2.89520426 121.18334,2.85968028 121.271205,2.77087034 L121.411789,2.0071048 C121.376643,1.93605684 121.288778,1.90053286 121.18334,1.90053286 C121.077902,1.90053286 120.972464,1.93605684 120.902172,1.98934281 C120.83188,2.04262877 120.796734,2.13143872 120.779161,2.23801066 L120.691297,2.57548845 Z M120.726443,4.15630551 C120.919745,4.15630551 121.042756,3.97868561 121.113048,3.62344583 L121.148194,3.35701599 C120.726443,3.55239787 120.53314,3.74777975 120.53314,3.96092362 C120.53314,4.01420959 120.550713,4.06749556 120.585859,4.10301954 C120.621005,4.13854352 120.656151,4.15630551 120.726443,4.15630551 L120.726443,4.15630551 Z M121.429362,4.47602131 C121.200913,4.70692718 120.919745,4.81349911 120.621005,4.81349911 C120.322264,4.81349911 120.093815,4.76021314 119.970804,4.65364121 C119.83022,4.54706927 119.777501,4.38721137 119.777501,4.20959147 C119.777501,3.94316163 119.953231,3.71225577 120.287118,3.51687389 C120.023523,3.42806394 119.900512,3.23268206 119.900512,2.93072824 C119.900512,2.85968028 119.900512,2.77087034 119.918085,2.68206039 L120.00595,2.14920071 C120.058669,1.88277087 120.164107,1.65186501 120.339837,1.4920071 C120.515567,1.3321492 120.744015,1.24333925 121.00761,1.24333925 C121.271205,1.24333925 121.482081,1.31438721 121.569946,1.43872114 L121.605092,1.29662522 L122.272866,1.29662522 L121.88626,3.55239787 C121.815968,3.94316163 121.657811,4.24511545 121.429362,4.47602131 L121.429362,4.47602131 Z M123.854435,2.18472469 C123.872008,2.13143872 123.872008,2.07815275 123.872008,2.04262877 C123.872008,2.0071048 123.854435,1.95381883 123.819289,1.90053286 C123.784143,1.84724689 123.713851,1.8294849 123.625986,1.8294849 C123.538121,1.8294849 123.467829,1.86500888 123.397537,1.91829485 C123.327245,1.97158082 123.274526,2.06039076 123.256953,2.18472469 L123.854435,2.18472469 Z M123.309672,3.55239787 C122.694617,3.55239787 122.378304,3.339254 122.378304,2.89520426 C122.378304,2.84191829 122.378304,2.77087034 122.395877,2.69982238 L122.483742,2.13143872 C122.53646,1.84724689 122.659471,1.61634103 122.88792,1.45648313 C123.098796,1.29662522 123.379964,1.22557726 123.731424,1.22557726 C124.328905,1.22557726 124.627646,1.45648313 124.627646,1.91829485 C124.627646,1.98934281 124.627646,2.06039076 124.610073,2.13143872 L124.557354,2.45115453 L123.204234,2.45115453 L123.186661,2.55772647 L123.186661,2.6642984 C123.186661,2.82415631 123.274526,2.91296625 123.485402,2.91296625 C123.555694,2.91296625 123.625986,2.89520426 123.661132,2.84191829 C123.713851,2.78863233 123.748997,2.73534636 123.748997,2.68206039 L124.487062,2.69982238 C124.381624,3.26820604 123.995019,3.55239787 123.309672,3.55239787 L123.309672,3.55239787 Z" id="形状结合"></path>
                        </g>
                        <g id="1">
                            <path d="M11.8266224,0.124333925 L11.3521517,2.78863233 L7.22249896,2.78863233 L5.5530649,12.3978686 L2.4953646,12.3978686 L4.16479867,2.78863233 L0,2.78863233 L0.474470735,0.124333925 L11.8266224,0.124333925 Z M16.079286,0.124333925 L13.9529542,12.3978686 L10.9128269,12.3978686 L13.0567317,0.124333925 L16.079286,0.124333925 Z M20.4022416,12.6287744 C18.8030995,12.6287744 17.6960011,12.2557726 17.0985194,11.5097691 C16.6767677,10.9946714 16.4834648,10.2664298 16.4834648,9.36056838 C16.4834648,8.93428064 16.5186108,8.49023091 16.6240487,7.97513321 L17.2215304,4.56483126 C17.7487201,1.52753108 19.593884,0 22.7570223,0 C24.0574236,0 25.041511,0.284191829 25.7268576,0.852575488 C26.3946312,1.42095915 26.746091,2.18472469 26.746091,3.1616341 C26.746091,3.55239787 26.6933721,3.96092362 26.5879341,4.36944938 C26.4824962,4.77797513 26.3770583,5.07992895 26.2716203,5.29307282 L26.0958904,5.59502664 L23.1084821,5.59502664 C23.4072229,5.18650089 23.5478068,4.72468917 23.5478068,4.1740675 C23.5478068,3.14387211 23.1260551,2.64653641 22.2825515,2.64653641 C21.1403072,2.64653641 20.4725336,3.30373002 20.2440847,4.63587922 L19.664176,7.90408526 C19.611457,8.20603908 19.5763111,8.5079929 19.5763111,8.80994671 C19.5763111,9.59147425 20.0332088,9.98223801 20.9470043,9.98223801 C21.8607998,9.98223801 22.4407085,9.52042629 22.7043033,8.57904085 L21.3160371,8.57904085 L21.6499239,6.69626998 L26.1134634,6.69626998 L25.8498685,8.15275311 L25.7620036,8.65008881 C25.2875329,11.3143872 23.4950879,12.6287744 20.4022416,12.6287744 M37.535907,0.124333925 L37.0614363,2.78863233 L31.6313823,2.78863233 L31.2447765,5.07992895 L35.725889,5.07992895 L35.2514183,7.74422735 L30.7703058,7.74422735 L30.436419,9.73357016 L35.8664729,9.73357016 L35.3920022,12.3978686 L26.9393939,12.3978686 L29.0832987,0.124333925 L37.535907,0.124333925 Z M44.1960703,0.124333925 C45.4788986,0.124333925 46.3926941,0.408525755 46.9198838,0.976909414 C47.3240625,1.40319716 47.5349384,1.95381883 47.5349384,2.61101243 C47.5349384,2.84191829 47.5173654,3.07282416 47.4646465,3.32149201 L47.2361976,4.65364121 C47.0956137,5.39964476 46.8671648,5.98579041 46.533278,6.44760213 C46.1993912,6.90941385 45.8303584,7.22912966 45.4261796,7.42451155 L46.9550297,12.3978686 L43.5458697,12.3978686 L42.1224575,7.81527531 L41.068078,7.81527531 L40.3827314,12.3978686 L37.1493012,12.3978686 L39.293206,0.124333925 L44.1960703,0.124333925 Z M43.1241179,2.78863233 L41.8588626,2.78863233 L41.4195378,5.75488455 L42.5969282,5.75488455 C43.1944099,5.75488455 43.6161616,5.61278863 43.8797565,5.3285968 C44.1433513,5.04440497 44.2663623,4.65364121 44.2663623,4.1740675 C44.2839352,3.25044405 43.8973295,2.78863233 43.1241179,2.78863233 Z" id="形状结合"></path>
                            <path d="M57.235229,0.124333925 L59.045247,6.0035524 L62.9288778,0.124333925 L66.0920161,0.124333925 L63.9481112,12.3978686 L60.890411,12.3978686 L62.1029473,5.48845471 L59.5021447,9.60923623 L57.287948,9.60923623 L56.1457036,5.48845471 L54.9331673,12.3978686 L51.89304,12.3978686 L54.0369448,0.124333925 L57.235229,0.124333925 Z M71.0124533,9.98223801 C71.574789,9.98223801 72.0316867,9.8401421 72.3655735,9.53818828 C72.6994604,9.23623446 72.9454822,8.70337478 73.0684932,7.90408526 L73.6484018,4.63587922 C73.6835478,4.40497336 73.7011208,4.20959147 73.7011208,4.03197158 C73.7011208,3.10834813 73.2442231,2.64653641 72.3128546,2.64653641 C71.1530372,2.6642984 70.4676906,3.339254 70.2392417,4.63587922 L69.6593331,7.90408526 C69.6241871,8.18827709 69.5890411,8.49023091 69.5890411,8.79218472 C69.5890411,9.59147425 70.0635118,9.98223801 71.0124533,9.98223801 M72.7346063,0.0177619893 C75.4408468,0.0177619893 76.7939671,1.13676732 76.7939671,3.37477798 C76.7939671,3.74777975 76.7588211,4.15630551 76.6709561,4.58259325 L76.0734745,7.9928952 C75.8098796,9.57371226 75.212398,10.7460036 74.3161755,11.5097691 C73.419953,12.2735346 72.1546977,12.6465364 70.5204096,12.6465364 C68.8861215,12.6465364 67.7614501,12.2735346 67.1112495,11.5097691 C66.6719247,10.9946714 66.4610488,10.2664298 66.4610488,9.34280639 C66.4610488,8.93428064 66.4961948,8.49023091 66.6016328,7.9928952 L67.1991144,4.58259325 C67.7438771,1.52753108 69.5890411,2.08531109e-13 72.7346063,0.0177619893 M88.7084544,0.124333925 L86.5821226,12.3978686 L83.5244223,12.3978686 L81.3980905,5.68383659 L80.2558461,12.3978686 L77.1981458,12.3978686 L79.3420506,0.124333925 L82.4700429,0.124333925 L84.5612287,6.39431616 L85.6507541,0.124333925 L88.7084544,0.124333925 Z M93.9627785,0.124333925 L91.8364467,12.3978686 L88.7787464,12.3978686 L90.9226512,0.124333925 L93.9627785,0.124333925 Z M112.168396,0.0177619893 C114.874637,0.0177619893 116.227757,1.13676732 116.227757,3.37477798 C116.227757,3.74777975 116.192611,4.15630551 116.104746,4.58259325 L115.507264,7.9928952 C115.24367,9.57371226 114.646188,10.7460036 113.749965,11.5097691 C112.853743,12.2735346 111.588488,12.6465364 109.9542,12.6465364 C108.319911,12.6465364 107.19524,12.2735346 106.545039,11.5097691 C106.105715,10.9946714 105.894839,10.2664298 105.894839,9.34280639 C105.894839,8.93428064 105.929985,8.49023091 106.035423,7.9928952 L106.632904,4.58259325 C107.160094,1.52753108 109.005258,2.08531109e-13 112.168396,0.0177619893 Z M106.527466,0.124333925 L106.052996,2.78863233 L101.90577,2.78863233 L100.236336,12.3978686 L97.1962087,12.3978686 L98.8656427,2.78863233 L94.7008441,2.78863233 L95.1753148,0.124333925 L106.527466,0.124333925 Z M111.729072,2.64653641 C110.569254,2.6642984 109.883908,3.339254 109.655459,4.63587922 L109.07555,7.90408526 C109.022831,8.18827709 109.005258,8.49023091 109.005258,8.79218472 C109.005258,9.59147425 109.479729,9.98223801 110.42867,9.98223801 C110.991006,9.98223801 111.447904,9.8401421 111.781791,9.53818828 C112.115677,9.23623446 112.361699,8.70337478 112.48471,7.90408526 L113.064619,4.63587922 C113.099765,4.40497336 113.117338,4.20959147 113.117338,4.03197158 C113.117338,3.10834813 112.66044,2.64653641 111.729072,2.64653641 Z M122.589179,2.78863233 L121.323924,2.78863233 L120.884599,5.75488455 L122.06199,5.75488455 C122.659471,5.75488455 123.081223,5.61278863 123.344818,5.3285968 C123.608413,5.04440497 123.731424,4.65364121 123.731424,4.1740675 C123.748997,3.25044405 123.362391,2.78863233 122.589179,2.78863233 L122.589179,2.78863233 Z M123.661132,0.124333925 C124.94396,0.124333925 125.857756,0.408525755 126.384945,0.976909414 C126.789124,1.40319716 127,1.95381883 127,2.61101243 C127,2.84191829 126.982427,3.07282416 126.929708,3.32149201 L126.701259,4.65364121 C126.560675,5.39964476 126.332226,5.98579041 125.99834,6.44760213 C125.664453,6.90941385 125.29542,7.22912966 124.891241,7.42451155 L126.420091,12.3978686 L123.010931,12.3978686 L121.587519,7.81527531 L120.53314,7.81527531 L119.847793,12.3978686 L116.614363,12.3978686 L118.758268,0.124333925 L123.661132,0.124333925 Z" id="形状结合"></path>
                        </g>
                    </g>
                </g>
            </g>
        </g>
    </g>
</svg>